<svg xmlns="http://www.w3.org/2000/svg" viewBox="0 0 24 24" aria-hidden="true">
  <path fill="#4285F4" d="M23.49 12.27c0-.79-.07-1.54-.2-2.27H12v4.29h6.44a5.5 5.5 0 0 1-2.39 3.61v3h3.87c2.27-2.09 3.57-5.17 3.57-8.63z"/>
  <path fill="#34A853" d="M12 24c3.24 0 5.96-1.07 7.94-2.9l-3.87-3A7.2 7.2 0 0 1 12 19.3a7.2 7.2 0 0 1-6.77-4.97H1.23v3.1A12 12 0 0 0 12 24z"/>
  <path fill="#FBBC05" d="M5.23 14.33A7.2 7.2 0 0 1 4.82 12c0-.81.14-1.6.41-2.33V6.57H1.23A12 12 0 0 0 0 12c0 1.93.46 3.75 1.23 5.43l4-3.1z"/>
  <path fill="#EA4335" d="M12 4.77c1.76 0 3.35.6 4.6 1.79l3.45-3.45A11.98 11.98 0 0 0 12 0 12 12 0 0 0 1.23 6.57l4 3.1A7.2 7.2 0 0 1 12 4.77z"/>
</svg>
